<svg width="40" height="40" viewBox="0 0 40 40" fill="none" xmlns="http://www.w3.org/2000/svg">
<g clip-path="url(#clip0_1_31)">
<path d="M20 40C21.3261 40 22.5979 39.4732 23.5355 38.5355C24.4732 37.5978 25 36.3261 25 35H15C15 36.3261 15.5268 37.5978 16.4645 38.5355C17.4021 39.4732 18.6739 40 20 40ZM20 4.79499L18.0075 5.19749C15.747 5.65712 13.7149 6.88413 12.2555 8.67062C10.7961 10.4571 9.9993 12.6932 10 15C10 16.57 9.665 20.4925 8.8525 24.355C8.4525 26.2725 7.9125 28.27 7.195 30H32.805C32.0875 28.27 31.55 26.275 31.1475 24.355C30.335 20.4925 30 16.57 30 15C30.0001 12.6936 29.203 10.4581 27.7437 8.67216C26.2844 6.88618 24.2526 5.65953 21.9925 5.19999L20 4.79499ZM35.55 30C36.1075 31.1175 36.7525 32.0025 37.5 32.5H2.5C3.2475 32.0025 3.8925 31.1175 4.45 30C6.7 25.5 7.5 17.2 7.5 15C7.5 8.94999 11.8 3.89999 17.5125 2.74749C17.4776 2.39987 17.516 2.04881 17.6251 1.71692C17.7342 1.38504 17.9117 1.07971 18.1461 0.820635C18.3804 0.561556 18.6665 0.354476 18.9858 0.212751C19.3052 0.0710264 19.6506 -0.00219727 20 -0.00219727C20.3494 -0.00219727 20.6948 0.0710264 21.0142 0.212751C21.3335 0.354476 21.6196 0.561556 21.8539 0.820635C22.0883 1.07971 22.2658 1.38504 22.3749 1.71692C22.484 2.04881 22.5224 2.39987 22.4875 2.74749C25.3136 3.32137 27.8544 4.85478 29.6792 7.08782C31.504 9.32087 32.5006 12.1162 32.5 15C32.5 17.2 33.3 25.5 35.55 30Z" fill="black"/>
<rect x="25" y="4" width="8" height="8" rx="4" fill="#FF3066" stroke="white" stroke-width="2"/>
</g>
<defs>
<clipPath id="clip0_1_31">
<rect width="40" height="40" fill="white"/>
</clipPath>
</defs>
</svg>
