<svg width="30" height="30" viewBox="0 0 30 30" fill="none" xmlns="http://www.w3.org/2000/svg">
<path d="M2.8125 2.8129C2.8125 2.56426 2.91127 2.3258 3.08709 2.14998C3.2629 1.97417 3.50136 1.8754 3.75 1.8754H26.25C26.4986 1.8754 26.7371 1.97417 26.9129 2.14998C27.0887 2.3258 27.1875 2.56426 27.1875 2.8129V6.5629C27.1875 6.7941 27.102 7.01713 26.9475 7.18915L18.75 16.2979V25.3129C18.7499 25.5096 18.6878 25.7012 18.5728 25.8607C18.4577 26.0202 18.2954 26.1395 18.1087 26.2016L12.4837 28.0766C12.3429 28.1236 12.1929 28.1364 12.0461 28.114C11.8994 28.0916 11.76 28.0346 11.6395 27.9479C11.5191 27.8611 11.4209 27.7469 11.3532 27.6148C11.2855 27.4827 11.2501 27.3364 11.25 27.1879V16.2979L3.0525 7.18915C2.89802 7.01713 2.81254 6.7941 2.8125 6.5629V2.8129ZM4.6875 3.7504V6.2029L12.885 15.3116C13.0395 15.4837 13.125 15.7067 13.125 15.9379V25.8866L16.875 24.6379V15.9379C16.875 15.7067 16.9605 15.4837 17.115 15.3116L25.3125 6.2029V3.7504H4.6875Z" fill="black" fill-opacity="0.5"/>
</svg>
