<svg width="30" height="30" viewBox="0 0 30 30" fill="none" xmlns="http://www.w3.org/2000/svg">
<path d="M1.875 4.6875C1.875 3.94158 2.17132 3.22621 2.69876 2.69876C3.22621 2.17132 3.94158 1.875 4.6875 1.875H10.3125C11.0584 1.875 11.7738 2.17132 12.3012 2.69876C12.8287 3.22621 13.125 3.94158 13.125 4.6875V10.3125C13.125 11.0584 12.8287 11.7738 12.3012 12.3012C11.7738 12.8287 11.0584 13.125 10.3125 13.125H4.6875C3.94158 13.125 3.22621 12.8287 2.69876 12.3012C2.17132 11.7738 1.875 11.0584 1.875 10.3125V4.6875ZM16.875 4.6875C16.875 3.94158 17.1713 3.22621 17.6988 2.69876C18.2262 2.17132 18.9416 1.875 19.6875 1.875H25.3125C26.0584 1.875 26.7738 2.17132 27.3012 2.69876C27.8287 3.22621 28.125 3.94158 28.125 4.6875V10.3125C28.125 11.0584 27.8287 11.7738 27.3012 12.3012C26.7738 12.8287 26.0584 13.125 25.3125 13.125H19.6875C18.9416 13.125 18.2262 12.8287 17.6988 12.3012C17.1713 11.7738 16.875 11.0584 16.875 10.3125V4.6875ZM1.875 19.6875C1.875 18.9416 2.17132 18.2262 2.69876 17.6988C3.22621 17.1713 3.94158 16.875 4.6875 16.875H10.3125C11.0584 16.875 11.7738 17.1713 12.3012 17.6988C12.8287 18.2262 13.125 18.9416 13.125 19.6875V25.3125C13.125 26.0584 12.8287 26.7738 12.3012 27.3012C11.7738 27.8287 11.0584 28.125 10.3125 28.125H4.6875C3.94158 28.125 3.22621 27.8287 2.69876 27.3012C2.17132 26.7738 1.875 26.0584 1.875 25.3125V19.6875ZM16.875 19.6875C16.875 18.9416 17.1713 18.2262 17.6988 17.6988C18.2262 17.1713 18.9416 16.875 19.6875 16.875H25.3125C26.0584 16.875 26.7738 17.1713 27.3012 17.6988C27.8287 18.2262 28.125 18.9416 28.125 19.6875V25.3125C28.125 26.0584 27.8287 26.7738 27.3012 27.3012C26.7738 27.8287 26.0584 28.125 25.3125 28.125H19.6875C18.9416 28.125 18.2262 27.8287 17.6988 27.3012C17.1713 26.7738 16.875 26.0584 16.875 25.3125V19.6875Z" fill="black" fill-opacity="0.5"/>
</svg>
