<svg width="80" height="80" viewBox="0 0 80 80" fill="none" xmlns="http://www.w3.org/2000/svg">
<g clip-path="url(#clip0_3_21)">
<path d="M80 40C80 50.6087 75.7857 60.7828 68.2843 68.2843C60.7828 75.7857 50.6087 80 40 80C29.3913 80 19.2172 75.7857 11.7157 68.2843C4.21427 60.7828 0 50.6087 0 40C0 29.3913 4.21427 19.2172 11.7157 11.7157C19.2172 4.21427 29.3913 0 40 0C50.6087 0 60.7828 4.21427 68.2843 11.7157C75.7857 19.2172 80 29.3913 80 40ZM42.5 22.5C42.5 21.837 42.2366 21.2011 41.7678 20.7322C41.2989 20.2634 40.663 20 40 20C39.337 20 38.7011 20.2634 38.2322 20.7322C37.7634 21.2011 37.5 21.837 37.5 22.5V37.5H22.5C21.837 37.5 21.2011 37.7634 20.7322 38.2322C20.2634 38.7011 20 39.337 20 40C20 40.663 20.2634 41.2989 20.7322 41.7678C21.2011 42.2366 21.837 42.5 22.5 42.5H37.5V57.5C37.5 58.163 37.7634 58.7989 38.2322 59.2678C38.7011 59.7366 39.337 60 40 60C40.663 60 41.2989 59.7366 41.7678 59.2678C42.2366 58.7989 42.5 58.163 42.5 57.5V42.5H57.5C58.163 42.5 58.7989 42.2366 59.2678 41.7678C59.7366 41.2989 60 40.663 60 40C60 39.337 59.7366 38.7011 59.2678 38.2322C58.7989 37.7634 58.163 37.5 57.5 37.5H42.5V22.5Z" fill="#FF3066"/>
</g>
<defs>
<clipPath id="clip0_3_21">
<rect width="80" height="80" fill="white"/>
</clipPath>
</defs>
</svg>
