<svg width="28" height="28" viewBox="0 0 28 28" fill="none" xmlns="http://www.w3.org/2000/svg">
<g clip-path="url(#clip0_3_43)">
<path d="M27.4878 19.7337L27.4879 19.7337C27.4932 19.7363 27.4954 19.7383 27.496 19.7389C27.4967 19.7395 27.4971 19.74 27.4974 19.7407C27.4984 19.7423 27.5003 19.7468 27.5003 19.7537C27.5003 19.7607 27.4984 19.7652 27.4974 19.7668C27.4971 19.7675 27.4967 19.768 27.496 19.7686C27.4958 19.7688 27.4956 19.769 27.4953 19.7692C27.4943 19.7701 27.492 19.7717 27.4879 19.7738L27.4879 19.7738L14.2451 26.397C14.2449 26.397 14.2448 26.3971 14.2447 26.3971C14.1688 26.4348 14.0851 26.4544 14.0003 26.4544C13.9155 26.4544 13.8318 26.4348 13.7559 26.3971C13.7558 26.3971 13.7557 26.397 13.7556 26.397L0.514102 19.7745C0.514017 19.7745 0.513933 19.7744 0.513849 19.7744C0.510117 19.7724 0.506978 19.7695 0.504769 19.7659C0.502512 19.7623 0.501317 19.7581 0.501317 19.7537C0.501317 19.7494 0.502512 19.7452 0.504769 19.7416C0.506966 19.738 0.510084 19.7351 0.51379 19.7331C0.513893 19.7331 0.513997 19.733 0.514102 19.733L3.29203 18.344L12.3732 22.8854L12.3735 22.8856C13.3977 23.3967 14.6045 23.3969 15.6274 22.8855L15.6275 22.8854L24.7077 18.3428L27.4878 19.7337ZM0.51261 7.22101L0.512435 7.22092C0.508571 7.21899 0.50532 7.21603 0.503048 7.21235C0.500776 7.20868 0.499573 7.20444 0.499573 7.20012C0.499573 7.1958 0.500776 7.19157 0.503048 7.1879C0.505321 7.18422 0.508572 7.18125 0.512435 7.17932L0.512657 7.17921L13.7556 0.557763C13.7557 0.557695 13.7558 0.557627 13.756 0.557558C13.8319 0.519901 13.9155 0.500305 14.0003 0.500305C14.0851 0.500305 14.1687 0.519901 14.2446 0.557558C14.2448 0.557627 14.2449 0.557695 14.2451 0.557763L27.4852 7.17783C27.4854 7.17792 27.4855 7.178 27.4857 7.17809C27.4896 7.18018 27.4929 7.18327 27.4952 7.18705C27.4976 7.19098 27.4989 7.19551 27.4989 7.20012C27.4989 7.20474 27.4976 7.20927 27.4952 7.2132C27.4929 7.21698 27.4896 7.22007 27.4857 7.22216C27.4855 7.22225 27.4854 7.22233 27.4852 7.22241L14.2451 13.8407C14.2449 13.8408 14.2448 13.8409 14.2447 13.8409C14.1687 13.8786 14.0851 13.8982 14.0003 13.8982C13.9155 13.8982 13.8319 13.8786 13.7559 13.8409C13.7558 13.8409 13.7557 13.8408 13.7556 13.8407L0.51261 7.22101Z" stroke="#FF3066"/>
<path d="M27.4874 13.4567L27.4875 13.4567C27.4928 13.4593 27.495 13.4613 27.4956 13.4619C27.4963 13.4625 27.4967 13.463 27.497 13.4637C27.498 13.4653 27.4999 13.4698 27.4999 13.4767C27.4999 13.4837 27.498 13.4882 27.497 13.4898C27.4967 13.4905 27.4963 13.491 27.4956 13.4916C27.495 13.4922 27.4928 13.4942 27.4875 13.4968L14.2446 20.1182C14.2444 20.1183 14.2442 20.1184 14.244 20.1185C14.1681 20.1561 14.0846 20.1757 13.9999 20.1757C13.9152 20.1757 13.8316 20.1561 13.7557 20.1185C13.7555 20.1184 13.7553 20.1183 13.7551 20.1182L0.513701 13.4975C0.513615 13.4975 0.513529 13.4974 0.513444 13.4974C0.509712 13.4954 0.506575 13.4925 0.504368 13.4889C0.502111 13.4853 0.500916 13.4811 0.500916 13.4767C0.500916 13.4724 0.502111 13.4682 0.504368 13.4646C0.506575 13.461 0.509713 13.4581 0.513446 13.4561C0.51353 13.4561 0.513615 13.456 0.513701 13.456L3.29163 12.067L12.3728 16.6084L12.3731 16.6086C13.3973 17.1197 14.6041 17.1199 15.627 16.6085L24.7098 12.067L27.4874 13.4567Z" stroke="#FF3066"/>
</g>
<defs>
<clipPath id="clip0_3_43">
<rect width="28" height="28" fill="white"/>
</clipPath>
</defs>
</svg>
