<svg width="28" height="28" viewBox="0 0 28 28" fill="none" xmlns="http://www.w3.org/2000/svg">
<path d="M14.875 9.79999C14.875 9.56792 14.7828 9.34536 14.6187 9.18127C14.4546 9.01718 14.2321 8.92499 14 8.92499C13.7679 8.92499 13.5454 9.01718 13.3813 9.18127C13.2172 9.34536 13.125 9.56792 13.125 9.79999V14.875H7.875C7.64294 14.875 7.42038 14.9672 7.25628 15.1313C7.09219 15.2954 7 15.5179 7 15.75C7 15.9821 7.09219 16.2046 7.25628 16.3687C7.42038 16.5328 7.64294 16.625 7.875 16.625H14C14.2321 16.625 14.4546 16.5328 14.6187 16.3687C14.7828 16.2046 14.875 15.9821 14.875 15.75V9.79999Z" fill="#FF3066"/>
<path d="M11.375 1.75C11.375 1.51794 11.4672 1.29538 11.6313 1.13128C11.7954 0.967187 12.0179 0.875 12.25 0.875H15.75C15.982 0.875 16.2046 0.967187 16.3687 1.13128C16.5328 1.29538 16.625 1.51794 16.625 1.75C16.625 1.98206 16.5328 2.20462 16.3687 2.36872C16.2046 2.53281 15.982 2.625 15.75 2.625V3.6225C18.13 3.9655 20.2895 4.9875 22.022 6.4925L22.043 6.46975L22.6625 5.85025L22.043 5.2325C21.8787 5.06843 21.7863 4.84581 21.7861 4.61362C21.786 4.38143 21.878 4.15868 22.0421 3.99438C22.2062 3.83007 22.4288 3.73768 22.661 3.73751C22.8932 3.73735 23.1159 3.82943 23.2802 3.9935L25.7547 6.46975C25.8383 6.55047 25.905 6.64702 25.9508 6.75377C25.9967 6.86052 26.0208 6.97534 26.0218 7.09152C26.0228 7.20771 26.0007 7.32293 25.9567 7.43046C25.9127 7.53799 25.8477 7.63569 25.7656 7.71785C25.6834 7.8 25.5857 7.86497 25.4782 7.90897C25.3707 7.95296 25.2554 7.9751 25.1393 7.97409C25.0231 7.97308 24.9083 7.94895 24.8015 7.90309C24.6947 7.85723 24.5982 7.79057 24.5175 7.707L23.8997 7.0875L23.2802 7.707L23.2575 7.728C25.0393 9.78487 26.0855 12.3765 26.231 15.0939C26.3765 17.8113 25.613 20.4998 24.0609 22.7352C22.5089 24.9706 20.2568 26.6255 17.6599 27.4389C15.0629 28.2522 12.2691 28.1777 9.71923 27.2271C7.16936 26.2765 5.00861 24.5038 3.57796 22.1889C2.1473 19.874 1.52818 17.1486 1.81831 14.4428C2.10843 11.737 3.29127 9.20486 5.18018 7.24588C7.0691 5.28691 9.55653 4.01268 12.25 3.62425V2.625C12.0179 2.625 11.7954 2.53281 11.6313 2.36872C11.4672 2.20462 11.375 1.98206 11.375 1.75ZM14 5.25C12.6211 5.25011 11.2557 5.52182 9.98187 6.0496C8.708 6.57738 7.55055 7.3509 6.57562 8.326C4.60665 10.2953 3.50063 12.9661 3.50086 15.7509C3.50109 18.5356 4.60756 21.2063 6.57686 23.1752C8.54615 25.1442 11.217 26.2502 14.0017 26.25C16.7865 26.2498 19.4571 25.1433 21.4261 23.174C23.3951 21.2047 24.5011 18.5339 24.5009 15.7491C24.5006 12.9644 23.3942 10.2937 21.4249 8.32476C19.4556 6.35579 16.7848 5.24977 14 5.25Z" fill="#FF3066"/>
</svg>
